<svg width="54" height="54" viewBox="0 0 54 54" fill="none" xmlns="http://www.w3.org/2000/svg">
<path opacity="0.15" d="M11.0363 50.7938C11.0363 51.0671 11.4492 51.3377 12.2514 51.5902C13.0537 51.8427 14.2296 52.0722 15.7119 52.2654C17.1943 52.4587 18.9541 52.612 20.8909 52.7166C22.8278 52.8212 24.9036 52.875 27 52.875C29.0964 52.875 31.1723 52.8212 33.1091 52.7166C35.0459 52.612 36.8057 52.4587 38.2881 52.2654C39.7705 52.0722 40.9463 51.8427 41.7486 51.5902C42.5508 51.3377 42.9638 51.0671 42.9638 50.7938C42.9638 50.5204 42.5508 50.2498 41.7486 49.9973C40.9463 49.7448 39.7705 49.5153 38.2881 49.3221C36.8057 49.1288 35.0459 48.9755 33.1091 48.8709C31.1723 48.7663 29.0964 48.7125 27 48.7125C24.9036 48.7125 22.8278 48.7663 20.8909 48.8709C18.9541 48.9755 17.1943 49.1288 15.7119 49.3221C14.2296 49.5153 13.0537 49.7448 12.2514 49.9973C11.4492 50.2498 11.0363 50.5204 11.0363 50.7938V50.7938Z" fill="#45413C"/>
<path d="M11.7563 8.42625V41.1525C11.7563 43.0088 11.295 44.5275 9.43875 44.5275H40.4325C42.2887 44.5275 42.75 43.0313 42.75 41.1525V8.42625H11.7563Z" fill="#FFF5E3"/>
<path d="M11.7563 8.42625H42.75V14.5012H11.7563V8.42625Z" fill="#F7E5C6"/>
<path d="M42.75 41.1525C42.75 43.0088 42.2887 44.5275 40.4325 44.5275H9.43875C11.295 44.5275 11.7563 43.0313 11.7563 41.1525V8.42625H42.75V41.1525Z" stroke="#45413C" stroke-width="0.5" stroke-linecap="round" stroke-linejoin="round"/>
<path d="M37.7775 41.1525V40.2412H6.75V41.1525C6.75 43.0088 7.56 44.5275 9.41625 44.5275H40.4325C38.5875 44.505 37.7775 43.0088 37.7775 41.1525Z" fill="#F7E5C6" stroke="#45413C" stroke-width="0.5" stroke-linecap="round" stroke-linejoin="round"/>
<path d="M10.5975 5.77125C9.64124 5.77125 8.85374 6.96375 8.85374 8.42625C8.85374 9.88875 9.64124 11.0925 10.5975 11.0925H40.9725V5.77125H10.5975Z" fill="#F7E5C6"/>
<path d="M10.5975 5.77125C9.64124 5.77125 8.85374 6.96375 8.85374 8.42625C8.85416 8.83594 8.92259 9.24272 9.05624 9.63C9.33749 8.76375 9.92249 8.1675 10.5975 8.1675H40.9725V5.77125H10.5975Z" fill="#FFF5E3"/>
<path d="M10.5975 5.77125C9.64124 5.77125 8.85374 6.96375 8.85374 8.42625C8.85374 9.88875 9.64124 11.0925 10.5975 11.0925H40.9725V5.77125H10.5975Z" stroke="#45413C" stroke-width="0.5" stroke-linecap="round" stroke-linejoin="round"/>
<path d="M39.285 8.42625C39.285 8.77491 39.3298 9.12015 39.4169 9.44227C39.5039 9.76439 39.6316 10.0571 39.7924 10.3036C39.9533 10.5502 40.1443 10.7457 40.3545 10.8791C40.5647 11.0126 40.79 11.0812 41.0175 11.0812C41.245 11.0812 41.4703 11.0126 41.6805 10.8791C41.8907 10.7457 42.0817 10.5502 42.2426 10.3036C42.4034 10.0571 42.5311 9.76439 42.6181 9.44227C42.7052 9.12015 42.75 8.77491 42.75 8.42625C42.75 8.07759 42.7052 7.73234 42.6181 7.41022C42.5311 7.0881 42.4034 6.79542 42.2426 6.54888C42.0817 6.30234 41.8907 6.10677 41.6805 5.97335C41.4703 5.83992 41.245 5.77125 41.0175 5.77125C40.79 5.77125 40.5647 5.83992 40.3545 5.97335C40.1443 6.10677 39.9533 6.30234 39.7924 6.54888C39.6316 6.79542 39.5039 7.0881 39.4169 7.41022C39.3298 7.73234 39.285 8.07759 39.285 8.42625V8.42625Z" fill="#F0D5A8"/>
<path d="M41.0175 7.875C41.7375 7.875 42.345 8.53875 42.615 9.495C42.709 9.14667 42.7545 8.78702 42.75 8.42625C42.75 6.96375 41.9738 5.77125 41.0175 5.77125C40.0613 5.77125 39.285 6.96375 39.285 8.42625C39.2826 8.77949 39.328 9.13144 39.42 9.4725C39.6788 8.51625 40.2975 7.875 41.0175 7.875Z" fill="#DEBB7E"/>
<path d="M39.285 8.42625C39.285 8.77491 39.3298 9.12015 39.4169 9.44227C39.5039 9.76439 39.6316 10.0571 39.7924 10.3036C39.9533 10.5502 40.1443 10.7457 40.3545 10.8791C40.5647 11.0126 40.79 11.0812 41.0175 11.0812C41.245 11.0812 41.4703 11.0126 41.6805 10.8791C41.8907 10.7457 42.0817 10.5502 42.2426 10.3036C42.4034 10.0571 42.5311 9.76439 42.6181 9.44227C42.7052 9.12015 42.75 8.77491 42.75 8.42625C42.75 8.07759 42.7052 7.73234 42.6181 7.41022C42.5311 7.0881 42.4034 6.79542 42.2426 6.54888C42.0817 6.30234 41.8907 6.10677 41.6805 5.97335C41.4703 5.83992 41.245 5.77125 41.0175 5.77125C40.79 5.77125 40.5647 5.83992 40.3545 5.97335C40.1443 6.10677 39.9533 6.30234 39.7924 6.54888C39.6316 6.79542 39.5039 7.0881 39.4169 7.41022C39.3298 7.73234 39.285 8.07759 39.285 8.42625V8.42625Z" stroke="#45413C" stroke-width="0.5" stroke-linecap="round" stroke-linejoin="round"/>
<path d="M16.065 15.8625H31.59" stroke="#45413C" stroke-width="0.5" stroke-linecap="round" stroke-linejoin="round"/>
<path d="M16.065 31.0387H31.59" stroke="#45413C" stroke-width="0.5" stroke-linecap="round" stroke-linejoin="round"/>
<path d="M16.065 35.1225H34.0988" stroke="#45413C" stroke-width="0.5" stroke-linecap="round" stroke-linejoin="round"/>
<path d="M16.065 19.6762H37.3163" stroke="#45413C" stroke-width="0.5" stroke-linecap="round" stroke-linejoin="round"/>
<path d="M16.065 23.67H37.3163" stroke="#45413C" stroke-width="0.5" stroke-linecap="round" stroke-linejoin="round"/>
</svg>
