<svg width="147.000000" height="147.000000" viewBox="0 0 147 147" fill="none" xmlns="http://www.w3.org/2000/svg" xmlns:xlink="http://www.w3.org/1999/xlink">
	<desc>
			Created with Pixso.
	</desc>
	<defs>
		<clipPath id="clip841_1278">
			<rect id="cloud-1--Streamline-Emoji" width="147.000000" height="147.000000" fill="white" fill-opacity="0"/>
		</clipPath>
	</defs>
	<rect id="cloud-1--Streamline-Emoji" width="147.000000" height="147.000000" fill="#FFFFFF" fill-opacity="0"/>
	<g clip-path="url(#clip841_1278)">
		<g opacity="0.150000">
			<path id="Vector" d="M28.69 131.96C28.69 132.73 29.85 133.49 32.1 134.2C34.35 134.91 37.65 135.55 41.81 136.09C45.97 136.64 50.91 137.07 56.35 137.36C61.79 137.66 67.61 137.81 73.5 137.81C79.38 137.81 85.21 137.66 90.64 137.36C96.08 137.07 101.02 136.64 105.18 136.09C109.34 135.55 112.64 134.91 114.89 134.2C117.14 133.49 118.3 132.73 118.3 131.96C118.3 131.19 117.14 130.43 114.89 129.72C112.64 129.01 109.34 128.37 105.18 127.82C101.02 127.28 96.08 126.85 90.64 126.55C85.21 126.26 79.38 126.11 73.5 126.11C67.61 126.11 61.79 126.26 56.35 126.55C50.91 126.85 45.97 127.28 41.81 127.82C37.65 128.37 34.35 129.01 32.1 129.72C29.85 130.43 28.69 131.19 28.69 131.96Z" fill="#45413C" fill-opacity="1.000000" fill-rule="nonzero"/>
		</g>
		<path id="Vector" d="M132.51 83.94C132.51 80.31 131.45 76.76 129.47 73.73C127.48 70.69 124.65 68.3 121.33 66.85C121.8 65.11 122.04 63.32 122.04 61.52C122.04 58.77 121.49 56.04 120.44 53.5C119.38 50.96 117.84 48.65 115.89 46.71C113.94 44.77 111.63 43.23 109.08 42.18C106.54 41.13 103.81 40.6 101.06 40.6C98.35 40.59 95.66 41.13 93.16 42.17C91.82 34.48 87.66 27.58 81.49 22.82C75.31 18.05 67.58 15.77 59.81 16.43C52.04 17.09 44.8 20.63 39.52 26.37C34.23 32.1 31.29 39.61 31.26 47.4C31.26 48.14 31.26 48.84 31.26 49.55C25.34 51.99 20.45 56.42 17.44 62.07C14.43 67.73 13.48 74.25 14.76 80.53C16.04 86.81 19.47 92.45 24.45 96.47C29.44 100.5 35.67 102.66 42.07 102.59L113.95 102.59C118.88 102.56 123.6 100.59 127.08 97.09C130.56 93.6 132.51 88.87 132.51 83.94Z" fill="#FFFFFF" fill-opacity="1.000000" fill-rule="nonzero"/>
		<path id="Vector" d="M113.95 89.45L42.07 89.45C35.9 89.45 29.91 87.37 25.05 83.56C20.2 79.74 16.77 74.41 15.31 68.41C14.3 72.47 14.24 76.71 15.11 80.8C15.99 84.89 17.79 88.73 20.36 92.02C22.94 95.31 26.24 97.98 30 99.81C33.76 101.64 37.89 102.59 42.07 102.59L113.95 102.59C116.96 102.58 119.92 101.83 122.58 100.43C125.24 99.02 127.52 96.99 129.23 94.51C130.94 92.03 132.02 89.18 132.38 86.19C132.74 83.2 132.38 80.17 131.32 77.35C129.98 80.89 127.61 83.94 124.51 86.1C121.41 88.26 117.73 89.43 113.95 89.45Z" fill="#F0F0F0" fill-opacity="1.000000" fill-rule="nonzero"/>
		<path id="Vector" d="M129.47 73.73C127.48 70.69 124.65 68.3 121.33 66.85C121.8 65.11 122.04 63.32 122.04 61.52C122.04 58.77 121.49 56.04 120.44 53.5C119.38 50.96 117.84 48.65 115.89 46.71C113.94 44.77 111.63 43.23 109.08 42.18C106.54 41.13 103.81 40.6 101.06 40.6C98.35 40.59 95.66 41.13 93.16 42.17C91.82 34.48 87.66 27.58 81.49 22.82C75.31 18.05 67.58 15.77 59.81 16.43C52.04 17.09 44.8 20.63 39.52 26.37C34.23 32.1 31.29 39.61 31.26 47.4C31.26 48.14 31.26 48.84 31.26 49.55C25.34 51.99 20.45 56.42 17.44 62.07C14.43 67.73 13.48 74.25 14.76 80.53C16.04 86.81 19.47 92.45 24.45 96.47C29.44 100.5 35.67 102.66 42.07 102.59L113.95 102.59C118.88 102.56 123.6 100.59 127.08 97.09C130.56 93.6 132.51 88.87 132.51 83.94C132.51 80.31 131.45 76.76 129.47 73.73Z" stroke="#45413C" stroke-opacity="1.000000" stroke-width="0.500000" stroke-linejoin="round"/>
		<path id="Vector" d="M93.25 42.17C89.57 44.07 86.47 46.91 84.25 50.4C82.04 53.89 80.79 57.91 80.63 62.04" stroke="#45413C" stroke-opacity="1.000000" stroke-width="0.500000" stroke-linejoin="round" stroke-linecap="round"/>
	</g>
</svg>
