<svg width="147" height="147" viewBox="0 0 147 147" fill="none" xmlns="http://www.w3.org/2000/svg">
<path opacity="0.15" d="M28.6953 131.963C28.6953 132.731 29.8542 133.492 32.1058 134.202C34.3575 134.911 37.6577 135.556 41.8182 136.099C45.9787 136.642 50.9179 137.073 56.3538 137.367C61.7897 137.661 67.6159 137.813 73.4997 137.813C79.3835 137.813 85.2097 137.661 90.6456 137.367C96.0815 137.073 101.021 136.642 105.181 136.099C109.342 135.556 112.642 134.911 114.894 134.202C117.145 133.492 118.304 132.731 118.304 131.963C118.304 131.195 117.145 130.434 114.894 129.725C112.642 129.015 109.342 128.37 105.181 127.827C101.021 127.284 96.0815 126.853 90.6456 126.559C85.2097 126.265 79.3835 126.114 73.4997 126.114C67.6159 126.114 61.7897 126.265 56.3538 126.559C50.9179 126.853 45.9787 127.284 41.8182 127.827C37.6577 128.37 34.3575 129.015 32.1058 129.725C29.8542 130.434 28.6953 131.195 28.6953 131.963V131.963Z" fill="#45413C"/>
<path d="M132.514 83.9431C132.514 80.3163 131.457 76.7682 129.472 73.7331C127.486 70.6979 124.659 68.3075 121.336 66.8544C121.804 65.1167 122.04 63.3251 122.041 61.5256C122.041 58.7736 121.497 56.0487 120.442 53.5069C119.387 50.9652 117.841 48.6566 115.892 46.7135C113.944 44.7704 111.631 43.2309 109.086 42.1833C106.541 41.1358 103.814 40.6007 101.062 40.6088C98.3511 40.5999 95.6651 41.1308 93.1611 42.1706C91.8278 34.4884 87.6641 27.5846 81.4914 22.8209C75.3187 18.0571 67.585 15.7794 59.8156 16.4367C52.0463 17.0941 44.8052 20.6389 39.5207 26.3721C34.2361 32.1052 31.2916 39.6104 31.268 47.4075C31.268 48.1425 31.268 48.8469 31.268 49.5513C25.3449 51.9933 20.4576 56.4225 17.4461 62.0774C14.4347 67.7323 13.4872 74.2596 14.7667 80.5373C16.0462 86.815 19.4726 92.4509 24.457 96.4762C29.4413 100.501 35.6723 102.665 42.0786 102.594H113.956C118.886 102.569 123.606 100.594 127.084 97.0987C130.562 93.6037 132.514 88.8737 132.514 83.9431V83.9431Z" fill="white"/>
<path d="M113.956 89.4556H42.0787C35.9055 89.4527 29.9121 87.3775 25.0588 83.5626C20.2055 79.7477 16.7734 74.414 15.3124 68.4163C14.3084 72.4773 14.242 76.7136 15.1182 80.8041C15.9944 84.8947 17.7902 88.7321 20.3695 92.0256C22.9488 95.3191 26.244 97.9823 30.0053 99.8133C33.7666 101.644 37.8953 102.595 42.0787 102.594H113.956C116.965 102.58 119.927 101.838 122.587 100.431C125.248 99.0248 127.529 96.9951 129.235 94.5158C130.941 92.0364 132.022 89.181 132.385 86.1934C132.748 83.2057 132.382 80.1746 131.32 77.3588C129.988 80.8945 127.616 83.9434 124.516 86.1031C121.416 88.2628 117.734 89.4317 113.956 89.4556Z" fill="#F0F0F0"/>
<path d="M132.514 83.9431C132.514 80.3163 131.457 76.7682 129.472 73.7331C127.486 70.6979 124.659 68.3075 121.336 66.8544C121.804 65.1167 122.04 63.3251 122.041 61.5256C122.041 58.7736 121.497 56.0487 120.442 53.5069C119.387 50.9652 117.841 48.6566 115.892 46.7135C113.944 44.7704 111.631 43.2309 109.086 42.1833C106.541 41.1358 103.814 40.6007 101.062 40.6088C98.3511 40.5999 95.6651 41.1308 93.1611 42.1706C91.8278 34.4884 87.6641 27.5846 81.4914 22.8209C75.3187 18.0571 67.585 15.7794 59.8156 16.4367C52.0463 17.0941 44.8052 20.6389 39.5207 26.3721C34.2361 32.1052 31.2916 39.6104 31.268 47.4075C31.268 48.1425 31.268 48.8469 31.268 49.5513C25.3449 51.9933 20.4576 56.4225 17.4461 62.0774C14.4347 67.7323 13.4872 74.2596 14.7667 80.5373C16.0462 86.815 19.4726 92.4509 24.457 96.4762C29.4413 100.501 35.6723 102.665 42.0786 102.594H113.956C118.886 102.569 123.606 100.594 127.084 97.0987C130.562 93.6037 132.514 88.8737 132.514 83.9431V83.9431Z" stroke="#45413C" stroke-width="0.5" stroke-linecap="round" stroke-linejoin="round"/>
<path d="M93.2532 42.1707C89.5792 44.0705 86.4753 46.9114 84.2585 50.4034C82.0418 53.8953 80.7916 57.9131 80.6357 62.0463" stroke="#45413C" stroke-width="0.5" stroke-linecap="round" stroke-linejoin="round"/>
</svg>
