<svg width="147" height="147" viewBox="0 0 147 147" fill="none" xmlns="http://www.w3.org/2000/svg">
<path opacity="0.15" d="M35.2188 139.344C35.2188 140.562 39.2519 141.731 46.4311 142.592C53.6102 143.454 63.3472 143.938 73.5 143.938C83.6528 143.938 93.3898 143.454 100.569 142.592C107.748 141.731 111.781 140.562 111.781 139.344C111.781 138.125 107.748 136.957 100.569 136.095C93.3898 135.234 83.6528 134.75 73.5 134.75C63.3472 134.75 53.6102 135.234 46.4311 136.095C39.2519 136.957 35.2188 138.125 35.2188 139.344V139.344Z" fill="#45413C"/>
<path d="M102.471 58.9838L102.073 68.9675L67.7119 34.5756C66.3722 33.1583 64.5573 32.2843 62.6139 32.1205C60.6705 31.9566 58.7349 32.5145 57.1769 33.6875C56.3451 34.3609 55.6643 35.2018 55.1789 36.1556C54.6935 37.1093 54.4142 38.1546 54.3593 39.2234C54.3045 40.2922 54.4752 41.3606 54.8603 42.359C55.2455 43.3575 55.8365 44.2637 56.595 45.0188L51.7256 40.1494C50.2393 38.6019 48.2217 37.6752 46.0794 37.5559C43.937 37.4365 41.829 38.1334 40.18 39.5063C39.3565 40.2491 38.6928 41.1517 38.2292 42.1592C37.7655 43.1666 37.5116 44.2578 37.483 45.3665C37.4543 46.4751 37.6515 47.578 38.0625 48.608C38.4735 49.6381 39.0898 50.5738 39.8737 51.3581L39.8125 51.205C38.6394 50.0082 37.1099 49.224 35.4534 48.97C33.797 48.716 32.1028 49.0059 30.625 49.7963C29.6014 50.3795 28.7262 51.1911 28.0676 52.1678C27.4089 53.1446 26.9845 54.2602 26.8275 55.4277C26.6704 56.5953 26.7849 57.7834 27.162 58.8994C27.5392 60.0155 28.1688 61.0295 29.0019 61.8625L38.1894 71.05C37.5273 70.3889 36.7342 69.8736 35.8611 69.5373C34.9879 69.201 34.0541 69.0511 33.1196 69.0973C32.1851 69.1434 31.2706 69.3846 30.4348 69.8053C29.5991 70.226 28.8606 70.8169 28.2669 71.54C27.2526 72.8995 26.7679 74.5816 26.9031 76.2723C27.0384 77.963 27.7844 79.5466 29.0019 80.7275L67.375 119.438C70.0624 122.138 73.2595 124.277 76.7806 125.731C80.3018 127.185 84.0767 127.925 87.8862 127.908C91.6958 127.891 95.4639 127.117 98.9719 125.631C102.48 124.146 105.658 121.978 108.321 119.254C112.522 114.869 115.777 109.668 117.884 103.973C119.992 98.2784 120.906 92.2112 120.571 86.1481L119.437 49C119.376 48.166 119 47.3863 118.386 46.8181C117.773 46.2499 116.966 45.9352 116.13 45.9375V45.9375C112.609 45.9264 109.22 47.2785 106.674 49.7106C104.128 52.1427 102.622 55.4659 102.471 58.9838V58.9838Z" fill="#FFE500"/>
<path d="M102.073 68.9675L67.7119 34.5756C66.3722 33.1583 64.5573 32.2843 62.6139 32.1205C60.6705 31.9566 58.7349 32.5145 57.1769 33.6875C56.4024 34.3167 55.7595 35.0923 55.2849 35.9701C54.8103 36.8479 54.5133 37.8105 54.4109 38.8031C54.3085 39.7957 54.4027 40.7987 54.6882 41.7549C54.9736 42.7111 55.4446 43.6016 56.0744 44.3756C56.3855 43.9469 56.7568 43.5653 57.1769 43.2425C58.7277 42.0619 60.659 41.4936 62.6021 41.6461C64.5453 41.7986 66.3642 42.6613 67.7119 44.0694L97.2956 73.6838L102.073 68.9675Z" fill="#FFF48C"/>
<path d="M119.713 58.555L119.437 49C119.376 48.1659 119 47.3863 118.386 46.8181C117.773 46.2499 116.966 45.9352 116.13 45.9375C112.599 45.9352 109.205 47.3036 106.663 49.7543C104.121 52.2051 102.629 55.5468 102.502 59.0756L102.104 69.0594L102.502 68.6306C102.636 65.1044 104.13 61.767 106.671 59.3179C109.211 56.8687 112.601 55.4979 116.13 55.4925C116.997 55.4833 117.837 55.7885 118.496 56.3516C119.155 56.9147 119.587 57.6975 119.713 58.555Z" fill="#FFF48C"/>
<path d="M102.471 58.9838L102.073 68.9675L67.7119 34.5756C66.3722 33.1583 64.5573 32.2843 62.6139 32.1205C60.6705 31.9566 58.7349 32.5145 57.1769 33.6875C56.3451 34.3609 55.6643 35.2018 55.1789 36.1556C54.6935 37.1093 54.4142 38.1546 54.3593 39.2234C54.3045 40.2922 54.4752 41.3606 54.8603 42.359C55.2455 43.3575 55.8365 44.2637 56.595 45.0188L51.7256 40.1494C50.2393 38.6019 48.2217 37.6752 46.0794 37.5559C43.937 37.4365 41.829 38.1334 40.18 39.5063C39.3565 40.2491 38.6928 41.1517 38.2292 42.1592C37.7655 43.1666 37.5116 44.2578 37.483 45.3665C37.4543 46.4751 37.6515 47.578 38.0625 48.608C38.4735 49.6381 39.0898 50.5738 39.8737 51.3581L39.8125 51.205C38.6394 50.0082 37.1099 49.224 35.4534 48.97C33.797 48.716 32.1028 49.0059 30.625 49.7963C29.6014 50.3795 28.7262 51.1911 28.0676 52.1678C27.4089 53.1446 26.9845 54.2602 26.8275 55.4277C26.6704 56.5953 26.7849 57.7834 27.162 58.8994C27.5392 60.0155 28.1688 61.0295 29.0019 61.8625L38.1894 71.05C37.5273 70.3889 36.7342 69.8736 35.8611 69.5373C34.9879 69.201 34.0541 69.0511 33.1196 69.0973C32.1851 69.1434 31.2706 69.3846 30.4348 69.8053C29.5991 70.226 28.8606 70.8169 28.2669 71.54C27.2526 72.8995 26.7679 74.5816 26.9031 76.2723C27.0384 77.963 27.7844 79.5466 29.0019 80.7275L67.375 119.438C70.0624 122.138 73.2595 124.277 76.7806 125.731C80.3018 127.185 84.0767 127.925 87.8862 127.908C91.6958 127.891 95.4639 127.117 98.9719 125.631C102.48 124.146 105.658 121.978 108.321 119.254C112.522 114.869 115.777 109.668 117.884 103.973C119.992 98.2784 120.906 92.2112 120.571 86.1481L119.437 49C119.376 48.166 119 47.3863 118.386 46.8181C117.773 46.2499 116.966 45.9352 116.13 45.9375V45.9375C112.609 45.9264 109.22 47.2785 106.674 49.7106C104.128 52.1427 102.622 55.4659 102.471 58.9838V58.9838Z" stroke="#45413C" stroke-width="0.5" stroke-linecap="round" stroke-linejoin="round"/>
<path d="M37.7912 70.9888L56.35 89.5169" stroke="#45413C" stroke-width="0.5" stroke-linecap="round" stroke-linejoin="round"/>
<path d="M39.8737 51.3888L67.1606 78.6757" stroke="#45413C" stroke-width="0.5" stroke-linecap="round" stroke-linejoin="round"/>
<path d="M56.595 45.08L78.6756 67.1912" stroke="#45413C" stroke-width="0.5" stroke-linecap="round" stroke-linejoin="round"/>
<path d="M102.073 68.9675L91.14 79.9007C89.4316 81.6072 88.0762 83.6337 87.1515 85.8644C86.2268 88.0951 85.7509 90.4862 85.7509 92.901C85.7509 95.3157 86.2268 97.7068 87.1515 99.9375C88.0762 102.168 89.4316 104.195 91.14 105.901V105.901" stroke="#45413C" stroke-width="0.5" stroke-linecap="round" stroke-linejoin="round"/>
<path d="M73.8369 26.8275C78.7032 27.6586 83.2597 29.7729 87.0363 32.9525C90.7785 36.2758 93.6224 40.489 95.305 45.2025" stroke="#45413C" stroke-width="0.5" stroke-linecap="round" stroke-linejoin="round"/>
<path d="M75.5825 18.6506C81.5796 19.6155 87.207 22.1753 91.875 26.0619C96.504 30.1446 100.014 35.3414 102.073 41.16" stroke="#45413C" stroke-width="0.5" stroke-linecap="round" stroke-linejoin="round"/>
<path d="M14.2406 74.235C13.7557 79.1328 14.5911 84.0711 16.66 88.5369C18.9038 93.0039 22.244 96.8288 26.3681 99.6537" stroke="#45413C" stroke-width="0.5" stroke-linecap="round" stroke-linejoin="round"/>
<path d="M5.88 73.8063C5.29612 79.8646 6.35397 85.9684 8.9425 91.4769C11.7155 96.9936 15.8337 101.723 20.9169 105.228" stroke="#45413C" stroke-width="0.5" stroke-linecap="round" stroke-linejoin="round"/>
</svg>
