<svg width="154" height="21" viewBox="0 0 154 21" fill="none" xmlns="http://www.w3.org/2000/svg">
<path d="M6.1 16.22C5.05333 16.22 4.14 16.0533 3.36 15.72C2.58 15.3867 1.97333 14.8867 1.54 14.22C1.10667 13.5467 0.89 12.7133 0.89 11.72C0.89 11.6067 0.89 11.5067 0.89 11.42C0.89 11.3267 0.89 11.2233 0.89 11.11H3.52C3.52 11.21 3.52 11.3033 3.52 11.39C3.52 11.47 3.52 11.5633 3.52 11.67C3.52 12.47 3.73667 13.07 4.17 13.47C4.61 13.8633 5.25667 14.06 6.11 14.06C6.97 14.06 7.62667 13.9167 8.08 13.63C8.54 13.3433 8.77 12.8833 8.77 12.25C8.77 11.79 8.61333 11.4 8.3 11.08C7.99333 10.7533 7.57 10.4667 7.03 10.22C6.49 9.97333 5.87667 9.74333 5.19 9.53C4.41667 9.29 3.71333 8.98 3.08 8.6C2.44667 8.22 1.94 7.74 1.56 7.16C1.18 6.58 0.99 5.86667 0.99 5.02C0.99 4.17333 1.20667 3.45333 1.64 2.86C2.08 2.26667 2.68 1.81667 3.44 1.51C4.20667 1.19667 5.07667 1.04 6.05 1.04C7.07 1.04 7.96667 1.2 8.74 1.52C9.52 1.84 10.13 2.31667 10.57 2.95C11.01 3.58333 11.23 4.37333 11.23 5.32C11.23 5.44667 11.23 5.55667 11.23 5.65C11.23 5.74333 11.23 5.85 11.23 5.97H8.59C8.59 5.88333 8.59 5.79667 8.59 5.71C8.59 5.61667 8.59 5.52667 8.59 5.44C8.59 4.68 8.38333 4.12 7.97 3.76C7.55667 3.39333 6.93 3.21 6.09 3.21C5.27 3.21 4.64 3.35333 4.2 3.64C3.76 3.92667 3.54 4.38333 3.54 5.01C3.54 5.47667 3.69 5.86667 3.99 6.18C4.29 6.49333 4.7 6.76667 5.22 7C5.74667 7.22667 6.34333 7.45667 7.01 7.69C7.89667 7.98333 8.66333 8.31667 9.31 8.69C9.95667 9.05667 10.4567 9.51667 10.81 10.07C11.1633 10.6167 11.34 11.3133 11.34 12.16C11.34 13.0267 11.12 13.7633 10.68 14.37C10.2467 14.97 9.63667 15.43 8.85 15.75C8.07 16.0633 7.15333 16.22 6.1 16.22ZM21.0666 16V12.17C21.0666 12.01 21.0666 11.81 21.0666 11.57C21.0666 11.33 21.0666 11.0867 21.0666 10.84C21.0666 10.5933 21.0666 10.39 21.0666 10.23C21.0666 9.35 20.8932 8.67667 20.5466 8.21C20.2066 7.73667 19.6232 7.5 18.7966 7.5C18.2432 7.5 17.7699 7.61 17.3766 7.83C16.9899 8.04333 16.6932 8.34333 16.4866 8.73C16.2799 9.11667 16.1766 9.56333 16.1766 10.07L15.2166 9.56C15.2166 8.71333 15.4066 7.96333 15.7866 7.31C16.1732 6.65 16.7066 6.13333 17.3866 5.76C18.0666 5.38667 18.8466 5.2 19.7266 5.2C21.0132 5.2 21.9966 5.58333 22.6766 6.35C23.3566 7.11 23.6966 8.17 23.6966 9.53C23.6966 9.87667 23.6966 10.29 23.6966 10.77C23.6966 11.2433 23.6966 11.7767 23.6966 12.37V16H21.0666ZM13.5466 16V0.369999H16.1766V16H13.5466ZM26.2419 16V5.38H28.8719V8.91L28.2619 8.57C28.3285 8.11 28.4519 7.67667 28.6319 7.27C28.8119 6.85667 29.0519 6.49667 29.3519 6.19C29.6519 5.87667 30.0152 5.63333 30.4419 5.46C30.8685 5.28667 31.3552 5.2 31.9019 5.2C32.3352 5.2 32.6752 5.23333 32.9219 5.3C33.1752 5.36 33.3319 5.41 33.3919 5.45L32.9119 7.86C32.8452 7.81333 32.7085 7.75667 32.5019 7.69C32.3019 7.61667 32.0319 7.58 31.6919 7.58C31.1519 7.58 30.6985 7.67333 30.3319 7.86C29.9719 8.04 29.6852 8.28667 29.4719 8.6C29.2585 8.90667 29.1052 9.24667 29.0119 9.62C28.9185 9.98667 28.8719 10.3533 28.8719 10.72V16H26.2419ZM35.8352 11.54V9.67H43.2652L42.9652 10.17C42.9652 10.13 42.9652 10.0867 42.9652 10.04C42.9652 9.98667 42.9652 9.94333 42.9652 9.91C42.9652 9.45 42.8618 9.02 42.6552 8.62C42.4485 8.21333 42.1352 7.88667 41.7152 7.64C41.2952 7.38667 40.7618 7.26 40.1152 7.26C39.4752 7.26 38.9185 7.39667 38.4452 7.67C37.9785 7.93667 37.6152 8.32333 37.3552 8.83C37.1018 9.33667 36.9752 9.94333 36.9752 10.65C36.9752 11.3767 37.0985 12.0033 37.3452 12.53C37.5918 13.05 37.9518 13.45 38.4252 13.73C38.9052 14.0033 39.4885 14.14 40.1752 14.14C40.6418 14.14 41.0452 14.0967 41.3852 14.01C41.7252 13.9233 42.0018 13.8067 42.2152 13.66C42.4352 13.5067 42.5985 13.3433 42.7052 13.17C42.8185 12.9967 42.8852 12.8233 42.9052 12.65H45.5252C45.4852 13.0967 45.3352 13.5333 45.0752 13.96C44.8218 14.38 44.4652 14.7633 44.0052 15.11C43.5452 15.45 42.9852 15.7233 42.3252 15.93C41.6718 16.13 40.9252 16.23 40.0852 16.23C38.9452 16.23 37.9485 15.9967 37.0952 15.53C36.2418 15.0633 35.5752 14.4133 35.0952 13.58C34.6218 12.7467 34.3852 11.7933 34.3852 10.72C34.3852 9.62 34.6252 8.65667 35.1052 7.83C35.5918 7.00333 36.2652 6.36 37.1252 5.9C37.9852 5.43333 38.9718 5.2 40.0852 5.2C41.2318 5.2 42.2218 5.43333 43.0552 5.9C43.8952 6.36667 44.5418 7.01667 44.9952 7.85C45.4485 8.67667 45.6752 9.64 45.6752 10.74C45.6752 10.88 45.6718 11.03 45.6652 11.19C45.6585 11.35 45.6485 11.4667 45.6352 11.54H35.8352ZM47.9866 20.56C47.6732 20.56 47.3932 20.5433 47.1466 20.51C46.8999 20.4833 46.7466 20.4567 46.6866 20.43V18.38C46.7732 18.42 46.9199 18.45 47.1266 18.47C47.3399 18.4967 47.5599 18.51 47.7866 18.51C48.1532 18.51 48.4699 18.4367 48.7366 18.29C49.0099 18.1433 49.2432 17.94 49.4366 17.68C49.6299 17.4267 49.7832 17.13 49.8966 16.79L50.1266 16.12L46.4666 5.38H49.2166L51.7266 14.24H51.4066L53.8566 5.38H56.5566L52.8366 16.65C52.5766 17.43 52.2599 18.1133 51.8866 18.7C51.5199 19.2867 51.0299 19.7433 50.4166 20.07C49.8032 20.3967 48.9932 20.56 47.9866 20.56ZM61.4053 16.22C60.612 16.22 59.9153 16.0967 59.3153 15.85C58.7153 15.5967 58.2453 15.2333 57.9053 14.76C57.5653 14.2867 57.3953 13.7167 57.3953 13.05C57.3953 12.3233 57.592 11.7267 57.9853 11.26C58.3853 10.7867 58.922 10.4233 59.5953 10.17C60.2686 9.91 61.0153 9.74333 61.8353 9.67C63.0486 9.55 63.8953 9.43667 64.3753 9.33C64.862 9.21667 65.1053 9.03667 65.1053 8.79C65.1053 8.78333 65.1053 8.78 65.1053 8.78C65.1053 8.77333 65.1053 8.77 65.1053 8.77C65.1053 8.30333 64.8953 7.94333 64.4753 7.69C64.0553 7.43667 63.462 7.31 62.6953 7.31C61.8886 7.31 61.2686 7.45333 60.8353 7.74C60.4086 8.02 60.1953 8.46667 60.1953 9.08H57.5953C57.5953 8.24667 57.8153 7.54333 58.2553 6.97C58.702 6.39 59.312 5.95 60.0853 5.65C60.8586 5.35 61.7353 5.2 62.7153 5.2C63.6286 5.2 64.4653 5.33667 65.2253 5.61C65.9853 5.88333 66.5953 6.29667 67.0553 6.85C67.5153 7.40333 67.7453 8.09333 67.7453 8.92C67.7453 9.06 67.7453 9.2 67.7453 9.34C67.7453 9.48 67.7453 9.62 67.7453 9.76V13.76C67.7453 14.0133 67.752 14.2633 67.7653 14.51C67.7853 14.75 67.822 14.9667 67.8753 15.16C67.942 15.3733 68.022 15.5533 68.1153 15.7C68.2086 15.8467 68.282 15.9467 68.3353 16H65.7353C65.6886 15.9533 65.622 15.8633 65.5353 15.73C65.4553 15.59 65.382 15.43 65.3153 15.25C65.2486 15.05 65.1986 14.8367 65.1653 14.61C65.132 14.3767 65.1153 14.12 65.1153 13.84L65.6353 14.2C65.4353 14.6067 65.1286 14.9633 64.7153 15.27C64.3086 15.57 63.822 15.8033 63.2553 15.97C62.6886 16.1367 62.072 16.22 61.4053 16.22ZM62.0453 14.15C62.592 14.15 63.0986 14.0567 63.5653 13.87C64.032 13.6833 64.4086 13.3967 64.6953 13.01C64.982 12.6167 65.1253 12.1133 65.1253 11.5V10.08L65.7653 10.8C65.3386 10.96 64.8253 11.0933 64.2253 11.2C63.6253 11.3 63.0186 11.38 62.4053 11.44C61.6186 11.5133 61.0253 11.65 60.6253 11.85C60.232 12.05 60.0353 12.3767 60.0353 12.83C60.0353 13.27 60.202 13.6 60.5353 13.82C60.8686 14.04 61.372 14.15 62.0453 14.15ZM74.4772 16.22C73.8439 16.22 73.2405 16.15 72.6672 16.01C72.1005 15.87 71.5939 15.66 71.1472 15.38C70.7072 15.1 70.3572 14.7533 70.0972 14.34C69.8439 13.92 69.7172 13.4367 69.7172 12.89C69.7172 12.85 69.7172 12.81 69.7172 12.77C69.7172 12.73 69.7172 12.6933 69.7172 12.66H72.3372C72.3372 12.6933 72.3372 12.7233 72.3372 12.75C72.3372 12.77 72.3372 12.8 72.3372 12.84C72.3372 13.2733 72.5339 13.6 72.9272 13.82C73.3272 14.0333 73.8705 14.14 74.5572 14.14C74.9305 14.14 75.2805 14.1 75.6072 14.02C75.9405 13.94 76.2072 13.8167 76.4072 13.65C76.6139 13.4833 76.7172 13.27 76.7172 13.01C76.7172 12.59 76.5005 12.29 76.0672 12.11C75.6405 11.93 74.9672 11.7667 74.0472 11.62C73.5405 11.5333 73.0405 11.4167 72.5472 11.27C72.0539 11.1233 71.6039 10.9267 71.1972 10.68C70.7972 10.4333 70.4739 10.1267 70.2272 9.76C69.9872 9.39333 69.8672 8.94667 69.8672 8.42C69.8672 7.72 70.0739 7.13333 70.4872 6.66C70.9072 6.18 71.4672 5.81667 72.1672 5.57C72.8739 5.32333 73.6505 5.2 74.4972 5.2C75.3105 5.2 76.0672 5.33333 76.7672 5.6C77.4672 5.86667 78.0305 6.25 78.4572 6.75C78.8905 7.25 79.1072 7.85333 79.1072 8.56C79.1072 8.58667 79.1072 8.61667 79.1072 8.65C79.1072 8.67667 79.1072 8.7 79.1072 8.72H76.5072C76.5072 8.7 76.5072 8.68 76.5072 8.66C76.5072 8.64 76.5072 8.61667 76.5072 8.59C76.5072 8.28333 76.4105 8.03333 76.2172 7.84C76.0239 7.64667 75.7739 7.50333 75.4672 7.41C75.1605 7.31667 74.8372 7.27 74.4972 7.27C74.1972 7.27 73.8872 7.30333 73.5672 7.37C73.2472 7.43 72.9805 7.54 72.7672 7.7C72.5539 7.85333 72.4472 8.07 72.4472 8.35C72.4472 8.61667 72.5572 8.83333 72.7772 9C72.9972 9.16667 73.3039 9.30667 73.6972 9.42C74.0905 9.52667 74.5439 9.62333 75.0572 9.71C75.5439 9.79 76.0339 9.9 76.5272 10.04C77.0272 10.18 77.4839 10.3667 77.8972 10.6C78.3105 10.8333 78.6439 11.14 78.8972 11.52C79.1572 11.8933 79.2872 12.3567 79.2872 12.91C79.2872 13.4967 79.1539 13.9967 78.8872 14.41C78.6205 14.8233 78.2572 15.1667 77.7972 15.44C77.3439 15.7067 76.8305 15.9033 76.2572 16.03C75.6839 16.1567 75.0905 16.22 74.4772 16.22ZM88.9767 16V12.17C88.9767 12.01 88.9767 11.81 88.9767 11.57C88.9767 11.33 88.9767 11.0867 88.9767 10.84C88.9767 10.5933 88.9767 10.39 88.9767 10.23C88.9767 9.35 88.8034 8.67667 88.4567 8.21C88.1167 7.73667 87.5334 7.5 86.7067 7.5C86.1534 7.5 85.6801 7.61 85.2867 7.83C84.9001 8.04333 84.6034 8.34333 84.3967 8.73C84.1901 9.11667 84.0867 9.56333 84.0867 10.07L83.1267 9.56C83.1267 8.71333 83.3167 7.96333 83.6967 7.31C84.0834 6.65 84.6167 6.13333 85.2967 5.76C85.9767 5.38667 86.7567 5.2 87.6367 5.2C88.9234 5.2 89.9067 5.58333 90.5867 6.35C91.2667 7.11 91.6067 8.17 91.6067 9.53C91.6067 9.87667 91.6067 10.29 91.6067 10.77C91.6067 11.2433 91.6067 11.7767 91.6067 12.37V16H88.9767ZM81.4567 16V0.369999H84.0867V16H81.4567ZM104.912 16.22C103.765 16.22 102.722 15.9267 101.782 15.34C100.849 14.7533 100.105 13.8967 99.552 12.77C98.9987 11.6433 98.722 10.2733 98.722 8.66C98.722 7.04 99.0087 5.66333 99.582 4.53C100.155 3.39667 100.929 2.53333 101.902 1.94C102.882 1.34 103.975 1.04 105.182 1.04C106.182 1.04 107.029 1.20667 107.722 1.54C108.422 1.86667 108.989 2.29 109.422 2.81C109.862 3.33 110.179 3.87667 110.372 4.45C110.572 5.02333 110.672 5.55667 110.672 6.05C110.672 6.07 110.672 6.09 110.672 6.11C110.672 6.13 110.672 6.15 110.672 6.17H108.112C108.112 6.15 108.112 6.13 108.112 6.11C108.112 6.09 108.112 6.07 108.112 6.05C108.112 5.70333 108.052 5.36333 107.932 5.03C107.812 4.69667 107.629 4.39333 107.382 4.12C107.135 3.84667 106.829 3.63 106.462 3.47C106.095 3.31 105.669 3.23 105.182 3.23C104.522 3.23 103.902 3.41333 103.322 3.78C102.749 4.14667 102.282 4.73 101.922 5.53C101.569 6.32333 101.392 7.36667 101.392 8.66C101.392 9.64 101.492 10.4733 101.692 11.16C101.892 11.8467 102.162 12.4033 102.502 12.83C102.849 13.2567 103.242 13.57 103.682 13.77C104.129 13.9633 104.599 14.06 105.092 14.06C105.759 14.06 106.312 13.9467 106.752 13.72C107.199 13.4933 107.545 13.21 107.792 12.87C108.045 12.53 108.205 12.1967 108.272 11.87V10.72H105.122V8.74H110.632V16H109.112L108.892 14.36C108.845 14.48 108.735 14.6433 108.562 14.85C108.395 15.0567 108.155 15.2667 107.842 15.48C107.529 15.6867 107.129 15.86 106.642 16C106.162 16.1467 105.585 16.22 104.912 16.22ZM116.913 16.22C116.12 16.22 115.423 16.0967 114.823 15.85C114.223 15.5967 113.753 15.2333 113.413 14.76C113.073 14.2867 112.903 13.7167 112.903 13.05C112.903 12.3233 113.1 11.7267 113.493 11.26C113.893 10.7867 114.43 10.4233 115.103 10.17C115.776 9.91 116.523 9.74333 117.343 9.67C118.556 9.55 119.403 9.43667 119.883 9.33C120.37 9.21667 120.613 9.03667 120.613 8.79C120.613 8.78333 120.613 8.78 120.613 8.78C120.613 8.77333 120.613 8.77 120.613 8.77C120.613 8.30333 120.403 7.94333 119.983 7.69C119.563 7.43667 118.97 7.31 118.203 7.31C117.396 7.31 116.776 7.45333 116.343 7.74C115.916 8.02 115.703 8.46667 115.703 9.08H113.103C113.103 8.24667 113.323 7.54333 113.763 6.97C114.21 6.39 114.82 5.95 115.593 5.65C116.366 5.35 117.243 5.2 118.223 5.2C119.136 5.2 119.973 5.33667 120.733 5.61C121.493 5.88333 122.103 6.29667 122.563 6.85C123.023 7.40333 123.253 8.09333 123.253 8.92C123.253 9.06 123.253 9.2 123.253 9.34C123.253 9.48 123.253 9.62 123.253 9.76V13.76C123.253 14.0133 123.26 14.2633 123.273 14.51C123.293 14.75 123.33 14.9667 123.383 15.16C123.45 15.3733 123.53 15.5533 123.623 15.7C123.716 15.8467 123.79 15.9467 123.843 16H121.243C121.196 15.9533 121.13 15.8633 121.043 15.73C120.963 15.59 120.89 15.43 120.823 15.25C120.756 15.05 120.706 14.8367 120.673 14.61C120.64 14.3767 120.623 14.12 120.623 13.84L121.143 14.2C120.943 14.6067 120.636 14.9633 120.223 15.27C119.816 15.57 119.33 15.8033 118.763 15.97C118.196 16.1367 117.58 16.22 116.913 16.22ZM117.553 14.15C118.1 14.15 118.606 14.0567 119.073 13.87C119.54 13.6833 119.916 13.3967 120.203 13.01C120.49 12.6167 120.633 12.1133 120.633 11.5V10.08L121.273 10.8C120.846 10.96 120.333 11.0933 119.733 11.2C119.133 11.3 118.526 11.38 117.913 11.44C117.126 11.5133 116.533 11.65 116.133 11.85C115.74 12.05 115.543 12.3767 115.543 12.83C115.543 13.27 115.71 13.6 116.043 13.82C116.376 14.04 116.88 14.15 117.553 14.15ZM130.321 16.2C129.941 16.2 129.554 16.1633 129.161 16.09C128.768 16.0167 128.408 15.88 128.081 15.68C127.754 15.48 127.491 15.1867 127.291 14.8C127.091 14.4133 126.991 13.9033 126.991 13.27C126.991 13.1233 126.991 12.9767 126.991 12.83C126.991 12.6767 126.991 12.52 126.991 12.36V7.48H124.481V5.38H125.501C125.848 5.38 126.121 5.36667 126.321 5.34C126.521 5.30667 126.668 5.23333 126.761 5.12C126.854 5.00667 126.914 4.83 126.941 4.59C126.974 4.34333 126.991 4.00333 126.991 3.57V1.88H129.631V5.38H132.791V7.48H129.631V11.74C129.631 11.8667 129.631 11.9933 129.631 12.12C129.631 12.24 129.631 12.3567 129.631 12.47C129.631 12.9633 129.691 13.36 129.811 13.66C129.931 13.96 130.214 14.11 130.661 14.11C130.874 14.11 131.074 14.09 131.261 14.05C131.454 14.01 131.598 13.97 131.691 13.93V15.99C131.564 16.0367 131.381 16.0833 131.141 16.13C130.901 16.1767 130.628 16.2 130.321 16.2ZM138.817 16.2C138.437 16.2 138.051 16.1633 137.657 16.09C137.264 16.0167 136.904 15.88 136.577 15.68C136.251 15.48 135.987 15.1867 135.787 14.8C135.587 14.4133 135.487 13.9033 135.487 13.27C135.487 13.1233 135.487 12.9767 135.487 12.83C135.487 12.6767 135.487 12.52 135.487 12.36V7.48H132.977V5.38H133.997C134.344 5.38 134.617 5.36667 134.817 5.34C135.017 5.30667 135.164 5.23333 135.257 5.12C135.351 5.00667 135.411 4.83 135.437 4.59C135.471 4.34333 135.487 4.00333 135.487 3.57V1.88H138.127V5.38H141.287V7.48H138.127V11.74C138.127 11.8667 138.127 11.9933 138.127 12.12C138.127 12.24 138.127 12.3567 138.127 12.47C138.127 12.9633 138.187 13.36 138.307 13.66C138.427 13.96 138.711 14.11 139.157 14.11C139.371 14.11 139.571 14.09 139.757 14.05C139.951 14.01 140.094 13.97 140.187 13.93V15.99C140.061 16.0367 139.877 16.0833 139.637 16.13C139.397 16.1767 139.124 16.2 138.817 16.2ZM147.093 16.2C146.34 16.2 145.713 16.0733 145.213 15.82C144.72 15.5667 144.33 15.2333 144.043 14.82C143.763 14.4067 143.563 13.95 143.443 13.45C143.33 12.95 143.273 12.45 143.273 11.95C143.273 11.7033 143.273 11.4467 143.273 11.18C143.273 10.9133 143.273 10.6433 143.273 10.37V5.38H145.913V9.96C145.913 10.2 145.913 10.43 145.913 10.65C145.913 10.87 145.913 11.0767 145.913 11.27C145.913 11.7433 145.97 12.1833 146.083 12.59C146.196 12.99 146.403 13.3133 146.703 13.56C147.01 13.8067 147.44 13.93 147.993 13.93C148.52 13.93 148.973 13.7767 149.353 13.47C149.733 13.1567 150.026 12.7633 150.233 12.29C150.446 11.8167 150.553 11.3367 150.553 10.85L151.453 11.45C151.453 12.0967 151.353 12.7067 151.153 13.28C150.953 13.8467 150.663 14.35 150.283 14.79C149.903 15.23 149.443 15.5767 148.903 15.83C148.37 16.0767 147.766 16.2 147.093 16.2ZM150.553 16V5.38H153.183V16H150.553Z" fill="#2D2D2D"/>
</svg>
