<svg width="213" height="223" viewBox="0 0 213 223" fill="none" xmlns="http://www.w3.org/2000/svg">
<path opacity="0.15" d="M53.25 211.385C53.25 213.233 58.8603 215.006 68.8466 216.313C78.8329 217.62 92.3772 218.354 106.5 218.354C120.623 218.354 134.167 217.62 144.153 216.313C154.14 215.006 159.75 213.233 159.75 211.385C159.75 209.537 154.14 207.764 144.153 206.458C134.167 205.151 120.623 204.417 106.5 204.417C92.3772 204.417 78.8329 205.151 68.8466 206.458C58.8603 207.764 53.25 209.537 53.25 211.385V211.385Z" fill="#45413C"/>
<path d="M135.255 205.206C135.667 205.778 135.919 206.458 135.983 207.171C136.046 207.884 135.919 208.602 135.615 209.243C135.31 209.885 134.842 210.425 134.261 210.803C133.68 211.182 133.01 211.383 132.326 211.385H80.1857C79.5017 211.383 78.8318 211.182 78.2511 210.803C77.6703 210.425 77.2016 209.885 76.8976 209.243C76.5935 208.602 76.4661 207.884 76.5296 207.171C76.5931 206.458 76.8449 205.778 77.257 205.206C83.6832 196.241 87.1558 185.334 87.1526 174.126V156.379H125.359V174.126C125.356 185.334 128.829 196.241 135.255 205.206V205.206Z" fill="#DEA47A"/>
<path d="M128.155 191.222C126.292 185.734 125.346 179.95 125.359 174.126V156.379H87.1525V174.126C87.13 179.951 86.1699 185.731 84.3125 191.222H128.155Z" fill="#BF8256"/>
<path d="M135.255 205.206C135.667 205.778 135.919 206.458 135.983 207.171C136.046 207.884 135.919 208.602 135.615 209.243C135.31 209.885 134.842 210.425 134.261 210.803C133.68 211.182 133.01 211.383 132.326 211.385H80.1857C79.5017 211.383 78.8318 211.182 78.2511 210.803C77.6703 210.425 77.2016 209.885 76.8976 209.243C76.5935 208.602 76.4661 207.884 76.5296 207.171C76.5931 206.458 76.8449 205.778 77.257 205.206C83.6832 196.241 87.1558 185.334 87.1526 174.126V156.379H125.359V174.126C125.356 185.334 128.829 196.241 135.255 205.206V205.206Z" stroke="#45413C" stroke-width="0.5" stroke-linecap="round" stroke-linejoin="round"/>
<path d="M169.379 159.445L152.295 138.167C151.815 137.565 151.509 136.831 151.412 136.053C151.315 135.275 151.432 134.484 151.748 133.773C152.064 133.062 152.568 132.46 153.199 132.037C153.83 131.614 154.563 131.387 155.313 131.384H157.931C159.218 131.379 160.477 130.98 161.551 130.236C162.625 129.492 163.468 128.436 163.977 127.198C164.486 125.96 164.638 124.593 164.416 123.265C164.193 121.937 163.605 120.706 162.723 119.723L144.973 99.7925C144.328 99.087 143.895 98.198 143.73 97.2367C143.564 96.2754 143.673 95.2843 144.042 94.3872C144.411 93.4901 145.025 92.7268 145.806 92.1926C146.587 91.6584 147.501 91.377 148.434 91.3836C149.721 91.3877 150.981 90.9987 152.059 90.2644C153.138 89.53 153.988 88.4821 154.507 87.2492C155.025 86.0163 155.188 84.6518 154.977 83.3232C154.765 81.9945 154.188 80.7593 153.316 79.769L113.378 34.3327C112.477 33.3242 111.388 32.5201 110.178 31.9704C108.969 31.4206 107.664 31.137 106.345 31.137C105.026 31.137 103.721 31.4206 102.511 31.9704C101.301 32.5201 100.212 33.3242 99.3113 34.3327L59.3738 79.769C58.5042 80.7564 57.9278 81.9873 57.7148 83.3117C57.5017 84.6361 57.6613 85.9968 58.174 87.2279C58.6867 88.4591 59.5304 89.5075 60.6022 90.2453C61.6741 90.9832 62.9279 91.3787 64.2107 91.3836C65.1387 91.3889 66.0453 91.6762 66.8203 92.2106C67.5954 92.745 68.2056 93.5034 68.5768 94.3939C68.948 95.2844 69.0643 96.2685 68.9116 97.2269C68.7588 98.1852 68.3436 99.0765 67.7163 99.7925L49.9663 119.723C49.0822 120.709 48.4932 121.944 48.2719 123.276C48.0507 124.608 48.2069 125.979 48.7213 127.219C49.2358 128.459 50.0859 129.515 51.1667 130.255C52.2475 130.995 53.5117 131.388 54.8032 131.384H57.4213C58.1707 131.387 58.9039 131.614 59.535 132.037C60.1662 132.46 60.6694 133.062 60.9858 133.773C61.3022 134.484 61.4188 135.275 61.322 136.053C61.2251 136.831 60.9188 137.565 60.4388 138.167L43.1326 159.445C41.884 160.942 41.0753 162.785 40.8036 164.752C40.5319 166.719 40.8088 168.726 41.6011 170.533C42.3933 172.339 43.6671 173.867 45.2693 174.933C46.8714 175.999 48.7336 176.558 50.6319 176.542H161.836C163.738 176.567 165.606 176.014 167.215 174.952C168.824 173.889 170.104 172.362 170.902 170.554C171.7 168.746 171.981 166.735 171.71 164.764C171.44 162.792 170.631 160.945 169.379 159.445V159.445Z" fill="#6DD627"/>
<path d="M63.3678 91.3371L99.2228 50.6396C100.124 49.631 101.213 48.827 102.423 48.2772C103.632 47.7275 104.937 47.4438 106.256 47.4438C107.575 47.4438 108.88 47.7275 110.09 48.2772C111.3 48.827 112.389 49.631 113.29 50.6396L149.145 91.3371C150.371 91.2187 151.541 90.7416 152.521 89.9603C153.501 89.1791 154.251 88.1251 154.686 86.9188C155.121 85.7124 155.223 84.4024 154.981 83.1381C154.738 81.8739 154.162 80.7064 153.316 79.769L113.378 34.3327C112.478 33.3242 111.388 32.5201 110.179 31.9704C108.969 31.4206 107.664 31.137 106.345 31.137C105.026 31.137 103.721 31.4206 102.511 31.9704C101.301 32.5201 100.212 33.3242 99.3115 34.3327L59.374 79.769C58.5333 80.6943 57.9553 81.8464 57.7049 83.0963C57.4544 84.3461 57.5414 85.6443 57.956 86.8453C58.3706 88.0463 59.0966 89.1027 60.0524 89.8961C61.0083 90.6894 62.1563 91.1884 63.3678 91.3371V91.3371Z" fill="#9CEB60"/>
<path d="M169.379 159.445L152.295 138.167C151.815 137.565 151.509 136.831 151.412 136.053C151.315 135.275 151.432 134.484 151.748 133.773C152.064 133.062 152.568 132.46 153.199 132.037C153.83 131.614 154.563 131.387 155.313 131.384H157.931C159.218 131.379 160.477 130.98 161.551 130.236C162.625 129.492 163.468 128.436 163.977 127.198C164.486 125.96 164.638 124.593 164.416 123.265C164.193 121.937 163.605 120.706 162.723 119.723L144.973 99.7925C144.328 99.087 143.895 98.198 143.73 97.2367C143.564 96.2754 143.673 95.2843 144.042 94.3872C144.411 93.4901 145.025 92.7268 145.806 92.1926C146.587 91.6584 147.501 91.377 148.434 91.3836C149.721 91.3877 150.981 90.9987 152.059 90.2644C153.138 89.53 153.988 88.4821 154.507 87.2492C155.025 86.0163 155.188 84.6518 154.977 83.3232C154.765 81.9945 154.188 80.7593 153.316 79.769L113.378 34.3327C112.477 33.3242 111.388 32.5201 110.178 31.9704C108.969 31.4206 107.664 31.137 106.345 31.137C105.026 31.137 103.721 31.4206 102.511 31.9704C101.301 32.5201 100.212 33.3242 99.3113 34.3327L59.3738 79.769C58.5042 80.7564 57.9278 81.9873 57.7148 83.3117C57.5017 84.6361 57.6613 85.9968 58.174 87.2279C58.6867 88.4591 59.5304 89.5075 60.6022 90.2453C61.6741 90.9832 62.9279 91.3787 64.2107 91.3836C65.1387 91.3889 66.0453 91.6762 66.8203 92.2106C67.5954 92.745 68.2056 93.5034 68.5768 94.3939C68.948 95.2844 69.0643 96.2685 68.9116 97.2269C68.7588 98.1852 68.3436 99.0765 67.7163 99.7925L49.9663 119.723C49.0822 120.709 48.4932 121.944 48.2719 123.276C48.0507 124.608 48.2069 125.979 48.7213 127.219C49.2358 128.459 50.0859 129.515 51.1667 130.255C52.2475 130.995 53.5117 131.388 54.8032 131.384H57.4213C58.1707 131.387 58.9039 131.614 59.535 132.037C60.1662 132.46 60.6694 133.062 60.9858 133.773C61.3022 134.484 61.4188 135.275 61.322 136.053C61.2251 136.831 60.9188 137.565 60.4388 138.167L43.1326 159.445C41.884 160.942 41.0753 162.785 40.8036 164.752C40.5319 166.719 40.8088 168.726 41.6011 170.533C42.3933 172.339 43.6671 173.867 45.2693 174.933C46.8714 175.999 48.7336 176.558 50.6319 176.542H161.836C163.738 176.567 165.606 176.014 167.215 174.952C168.824 173.889 170.104 172.362 170.902 170.554C171.7 168.746 171.981 166.735 171.71 164.764C171.44 162.792 170.631 160.945 169.379 159.445V159.445Z" stroke="#45413C" stroke-width="0.5" stroke-linecap="round" stroke-linejoin="round"/>
<path d="M106.234 31.0805L101.22 33.868C100.57 34.2324 99.8348 34.3968 99.0995 34.3421C98.3643 34.2875 97.6588 34.0161 97.0646 33.5593C96.4705 33.1025 96.012 32.4789 95.7421 31.7608C95.4723 31.0426 95.4021 30.2591 95.5397 29.501L96.4715 23.6472L92.4334 19.5124C91.8996 18.981 91.5202 18.3023 91.3391 17.5548C91.158 16.8072 91.1825 16.0213 91.4099 15.2877C91.6373 14.5542 92.0582 13.9029 92.6241 13.4091C93.1899 12.9154 93.8776 12.5992 94.6078 12.4972L100.199 11.6145L102.728 6.31826C103.057 5.63398 103.561 5.05882 104.184 4.65693C104.807 4.25505 105.525 4.04224 106.256 4.04224C106.988 4.04224 107.705 4.25505 108.328 4.65693C108.951 5.05882 109.455 5.63398 109.784 6.31826L112.313 11.6145L117.905 12.4972C118.635 12.5992 119.323 12.9154 119.888 13.4091C120.454 13.9029 120.875 14.5542 121.103 15.2877C121.33 16.0213 121.354 16.8072 121.173 17.5548C120.992 18.3023 120.613 18.981 120.079 19.5124L116.041 23.6472L116.973 29.501C117.11 30.2591 117.04 31.0426 116.77 31.7608C116.5 32.4789 116.042 33.1025 115.448 33.5593C114.854 34.0161 114.148 34.2875 113.413 34.3421C112.678 34.3968 111.943 34.2324 111.293 33.868L106.234 31.0805Z" fill="#FFE500" stroke="#45413C" stroke-width="0.5" stroke-linecap="round" stroke-linejoin="round"/>
<path d="M113.955 131.616H98.5571C98.2891 131.616 98.0239 131.673 97.7779 131.784C97.5319 131.895 97.3104 132.059 97.1272 132.263C96.9441 132.468 96.8031 132.71 96.7132 132.975C96.6233 133.239 96.5864 133.52 96.6046 133.8L97.6253 146.065C98.0103 148.191 99.092 150.11 100.684 151.49C102.276 152.871 104.278 153.626 106.345 153.626C108.412 153.626 110.414 152.871 112.006 151.49C113.598 150.11 114.68 148.191 115.065 146.065L115.997 133.8C116.016 133.512 115.976 133.223 115.881 132.952C115.786 132.681 115.637 132.435 115.444 132.228C115.251 132.022 115.019 131.861 114.762 131.755C114.506 131.65 114.231 131.603 113.955 131.616V131.616Z" fill="#FF866E" stroke="#45413C" stroke-width="0.5" stroke-linecap="round" stroke-linejoin="round"/>
<path d="M125.937 108.945C125.937 110.584 126.558 112.155 127.665 113.314C128.772 114.473 130.273 115.124 131.838 115.124C133.404 115.124 134.905 114.473 136.012 113.314C137.118 112.155 137.74 110.584 137.74 108.945C137.74 107.306 137.118 105.734 136.012 104.576C134.905 103.417 133.404 102.766 131.838 102.766C130.273 102.766 128.772 103.417 127.665 104.576C126.558 105.734 125.937 107.306 125.937 108.945V108.945Z" fill="#45413C" stroke="#45413C" stroke-width="0.5" stroke-linecap="round" stroke-linejoin="round"/>
<path d="M74.772 108.945C74.772 110.584 75.3938 112.155 76.5006 113.314C77.6074 114.473 79.1086 115.124 80.6738 115.124C82.2391 115.124 83.7403 114.473 84.8471 113.314C85.9539 112.155 86.5757 110.584 86.5757 108.945C86.5757 107.306 85.9539 105.734 84.8471 104.576C83.7403 103.417 82.2391 102.766 80.6738 102.766C79.1086 102.766 77.6074 103.417 76.5006 104.576C75.3938 105.734 74.772 107.306 74.772 108.945V108.945Z" fill="#45413C" stroke="#45413C" stroke-width="0.5" stroke-linecap="round" stroke-linejoin="round"/>
<path d="M146.127 130.594C146.127 133.057 142.932 135.24 138.983 135.24C135.033 135.24 131.838 133.196 131.838 130.594C131.838 127.993 135.033 125.948 138.983 125.948C142.932 125.948 146.127 128.132 146.127 130.594Z" fill="#FFCEBF"/>
<path d="M80.674 130.92C80.674 133.428 77.479 135.565 73.5296 135.565C69.5803 135.565 66.3853 133.568 66.3853 130.92C66.3853 128.271 69.5803 126.274 73.5296 126.274C77.479 126.274 80.674 128.457 80.674 130.92Z" fill="#FFCEBF"/>
<path d="M118.038 71.8709C118.038 73.5096 118.659 75.0813 119.766 76.24C120.873 77.3988 122.374 78.0498 123.939 78.0498C125.505 78.0498 127.006 77.3988 128.113 76.24C129.22 75.0813 129.841 73.5096 129.841 71.8709C129.841 70.2321 129.22 68.6604 128.113 67.5017C127.006 66.3429 125.505 65.6919 123.939 65.6919C122.374 65.6919 120.873 66.3429 119.766 67.5017C118.659 68.6604 118.038 70.2321 118.038 71.8709V71.8709Z" fill="#FFE500" stroke="#45413C" stroke-width="0.5" stroke-linecap="round" stroke-linejoin="round"/>
<path d="M131.838 61.6038C131.838 62.4152 131.991 63.2187 132.288 63.9683C132.584 64.718 133.019 65.3992 133.567 65.9729C134.115 66.5467 134.766 67.0019 135.482 67.3124C136.198 67.6229 136.965 67.7827 137.74 67.7827C138.515 67.7827 139.283 67.6229 139.999 67.3124C140.715 67.0019 141.365 66.5467 141.914 65.9729C142.462 65.3992 142.896 64.718 143.193 63.9683C143.489 63.2187 143.642 62.4152 143.642 61.6038C143.642 60.7923 143.489 59.9888 143.193 59.2392C142.896 58.4895 142.462 57.8083 141.914 57.2346C141.365 56.6608 140.715 56.2057 139.999 55.8951C139.283 55.5846 138.515 55.4248 137.74 55.4248C136.965 55.4248 136.198 55.5846 135.482 55.8951C134.766 56.2057 134.115 56.6608 133.567 57.2346C133.019 57.8083 132.584 58.4895 132.288 59.2392C131.991 59.9888 131.838 60.7923 131.838 61.6038V61.6038Z" fill="#FF6242" stroke="#45413C" stroke-width="0.5" stroke-linecap="round" stroke-linejoin="round"/>
<path d="M100.332 73.9617C100.332 75.6004 100.954 77.1721 102.061 78.3309C103.167 79.4896 104.669 80.1406 106.234 80.1406C107.799 80.1406 109.3 79.4896 110.407 78.3309C111.514 77.1721 112.136 75.6004 112.136 73.9617C112.136 72.3229 111.514 70.7513 110.407 69.5925C109.3 68.4337 107.799 67.7827 106.234 67.7827C104.669 67.7827 103.167 68.4337 102.061 69.5925C100.954 70.7513 100.332 72.3229 100.332 73.9617V73.9617Z" fill="#FF6196" stroke="#45413C" stroke-width="0.5" stroke-linecap="round" stroke-linejoin="round"/>
<path d="M82.6709 71.8709C82.6709 72.6823 82.8236 73.4858 83.1202 74.2354C83.4167 74.9851 83.8515 75.6663 84.3995 76.24C84.9476 76.8138 85.5982 77.2689 86.3142 77.5795C87.0303 77.89 87.7977 78.0498 88.5728 78.0498C89.3478 78.0498 90.1153 77.89 90.8313 77.5795C91.5474 77.2689 92.198 76.8138 92.746 76.24C93.2941 75.6663 93.7288 74.9851 94.0254 74.2354C94.322 73.4858 94.4747 72.6823 94.4747 71.8709C94.4747 71.0594 94.322 70.2559 94.0254 69.5063C93.7288 68.7566 93.2941 68.0754 92.746 67.5017C92.198 66.9279 91.5474 66.4728 90.8313 66.1622C90.1153 65.8517 89.3478 65.6919 88.5728 65.6919C87.7977 65.6919 87.0303 65.8517 86.3142 66.1622C85.5982 66.4728 84.9476 66.9279 84.3995 67.5017C83.8515 68.0754 83.4167 68.7566 83.1202 69.5063C82.8236 70.2559 82.6709 71.0594 82.6709 71.8709Z" fill="#00DFEB" stroke="#45413C" stroke-width="0.5" stroke-linecap="round" stroke-linejoin="round"/>
<path d="M68.8701 61.6038C68.8701 63.2425 69.4919 64.8142 70.5987 65.9729C71.7056 67.1317 73.2067 67.7827 74.772 67.7827C76.3373 67.7827 77.8384 67.1317 78.9453 65.9729C80.0521 64.8142 80.6739 63.2425 80.6739 61.6038C80.6739 59.965 80.0521 58.3934 78.9453 57.2346C77.8384 56.0758 76.3373 55.4248 74.772 55.4248C73.2067 55.4248 71.7056 56.0758 70.5987 57.2346C69.4919 58.3934 68.8701 59.965 68.8701 61.6038V61.6038Z" fill="#FFE500" stroke="#45413C" stroke-width="0.5" stroke-linecap="round" stroke-linejoin="round"/>
</svg>
