<svg width="147" height="147" viewBox="0 0 147 147" fill="none" xmlns="http://www.w3.org/2000/svg">
<path d="M7.8706 118.978C6.52012 118.1 5.35598 116.965 4.44481 115.637C3.53364 114.309 2.89333 112.814 2.56052 111.238C2.2277 109.662 2.20893 108.036 2.50526 106.453C2.80159 104.87 3.40722 103.361 4.28748 102.012L26.9194 116.712C26.044 118.069 24.9089 119.24 23.5794 120.156C22.2499 121.073 20.7522 121.718 19.1726 122.054C17.5929 122.39 15.9624 122.41 14.3749 122.113C12.7874 121.817 11.2743 121.209 9.92248 120.326L7.8706 118.978Z" fill="#FF8A14"/>
<path d="M102.287 52.3075H75.0006L76.7769 45.08C77.0094 44.1161 77.5578 43.2576 78.3349 42.6416C79.1119 42.0255 80.0728 41.6872 81.0644 41.6807H96.3769C97.3737 41.6804 98.3417 42.0155 99.125 42.6321C99.9082 43.2487 100.461 44.111 100.695 45.08L102.287 52.3075Z" fill="#ADC4D9" stroke="#45413C" stroke-width="0.5" stroke-linecap="round" stroke-linejoin="round"/>
<path d="M88.8124 49.2757C83.0298 49.2515 77.2994 50.3695 71.95 52.5657C66.6006 54.7619 61.7376 57.9929 57.6401 62.0733C53.5426 66.1537 50.2913 71.0032 48.0729 76.3433C45.8544 81.6835 44.7124 87.4092 44.7124 93.1919V125.011C44.7084 126.405 44.9795 127.787 45.5102 129.076C46.0409 130.365 46.8208 131.537 47.8052 132.524C48.7895 133.511 49.959 134.294 51.2466 134.829C52.5342 135.363 53.9146 135.638 55.3087 135.638H121.979C123.373 135.638 124.754 135.363 126.041 134.829C127.329 134.294 128.499 133.511 129.483 132.524C130.467 131.537 131.247 130.365 131.778 129.076C132.309 127.787 132.58 126.405 132.576 125.011V93.1919C132.576 81.5711 127.97 70.4239 119.767 62.1924C111.564 53.9609 100.433 49.3162 88.8124 49.2757V49.2757Z" fill="#FFE500"/>
<path d="M88.8125 49.2757C83.0298 49.2515 77.2994 50.3695 71.95 52.5657C66.6006 54.7619 61.7376 57.9929 57.6401 62.0733C53.5426 66.1537 50.2914 71.0032 48.0729 76.3433C45.8544 81.6835 44.7124 87.4092 44.7125 93.1919V105.442C44.5575 99.5751 45.5793 93.7368 47.7174 88.2713C49.8555 82.8058 53.0667 77.8239 57.1614 73.6196C61.2562 69.4153 66.1515 66.0738 71.5587 63.7921C76.9658 61.5105 82.7752 60.335 88.644 60.335C94.5128 60.335 100.322 61.5105 105.729 63.7921C111.136 66.0738 116.032 69.4153 120.127 73.6196C124.221 77.8239 127.433 82.8058 129.571 88.2713C131.709 93.7368 132.73 99.5751 132.576 105.442V93.1919C132.576 81.5711 127.97 70.4239 119.767 62.1924C111.564 53.9609 100.433 49.3162 88.8125 49.2757V49.2757Z" fill="#FFF48C"/>
<path d="M88.8124 49.2757C83.0298 49.2515 77.2994 50.3695 71.95 52.5657C66.6006 54.7619 61.7376 57.9929 57.6401 62.0733C53.5426 66.1537 50.2913 71.0032 48.0729 76.3433C45.8544 81.6835 44.7124 87.4092 44.7124 93.1919V125.011C44.7084 126.405 44.9795 127.787 45.5102 129.076C46.0409 130.365 46.8208 131.537 47.8052 132.524C48.7895 133.511 49.959 134.294 51.2466 134.829C52.5342 135.363 53.9146 135.638 55.3087 135.638H121.979C123.373 135.638 124.754 135.363 126.041 134.829C127.329 134.294 128.499 133.511 129.483 132.524C130.467 131.537 131.247 130.365 131.778 129.076C132.309 127.787 132.58 126.405 132.576 125.011V93.1919C132.576 81.5711 127.97 70.4239 119.767 62.1924C111.564 53.9609 100.433 49.3162 88.8124 49.2757V49.2757Z" stroke="#45413C" stroke-width="0.5" stroke-linecap="round" stroke-linejoin="round"/>
<path opacity="0.15" d="M38.6487 141.702C38.6487 142.904 43.9177 144.057 53.2965 144.907C62.6753 145.757 75.3957 146.234 88.6594 146.234C101.923 146.234 114.643 145.757 124.022 144.907C133.401 144.057 138.67 142.904 138.67 141.702C138.67 140.5 133.401 139.347 124.022 138.497C114.643 137.647 101.923 137.169 88.6594 137.169C75.3957 137.169 62.6753 137.647 53.2965 138.497C43.9177 139.347 38.6487 140.5 38.6487 141.702V141.702Z" fill="#45413C"/>
<path d="M96.04 88.9044C96.04 92.4863 97.4629 95.9216 99.9957 98.4543C102.528 100.987 105.964 102.41 109.546 102.41C113.128 102.41 116.563 100.987 119.096 98.4543C121.628 95.9216 123.051 92.4863 123.051 88.9044C123.051 85.3225 121.628 81.8873 119.096 79.3545C116.563 76.8217 113.128 75.3988 109.546 75.3988C105.964 75.3988 102.528 76.8217 99.9957 79.3545C97.4629 81.8873 96.04 85.3225 96.04 88.9044V88.9044Z" fill="white" stroke="#45413C" stroke-width="0.5" stroke-linecap="round" stroke-linejoin="round"/>
<path d="M104.646 88.9044C104.646 89.5479 104.772 90.185 105.019 90.7795C105.265 91.374 105.626 91.9142 106.081 92.3692C106.536 92.8242 107.076 93.1852 107.67 93.4314C108.265 93.6777 108.902 93.8044 109.546 93.8044C110.189 93.8044 110.826 93.6777 111.421 93.4314C112.015 93.1852 112.555 92.8242 113.01 92.3692C113.465 91.9142 113.826 91.374 114.073 90.7795C114.319 90.185 114.446 89.5479 114.446 88.9044C114.446 88.2609 114.319 87.6237 114.073 87.0292C113.826 86.4347 113.465 85.8946 113.01 85.4396C112.555 84.9846 112.015 84.6236 111.421 84.3774C110.826 84.1311 110.189 84.0044 109.546 84.0044C108.902 84.0044 108.265 84.1311 107.67 84.3774C107.076 84.6236 106.536 84.9846 106.081 85.4396C105.626 85.8946 105.265 86.4347 105.019 87.0292C104.772 87.6237 104.646 88.2609 104.646 88.9044V88.9044Z" fill="#FF6242" stroke="#45413C" stroke-width="0.5" stroke-linecap="round" stroke-linejoin="round"/>
<path d="M55.4925 88.9044C55.4925 92.1614 56.7863 95.2851 59.0894 97.5881C61.3925 99.8912 64.5161 101.185 67.7731 101.185C71.0301 101.185 74.1538 99.8912 76.4568 97.5881C78.7599 95.2851 80.0537 92.1614 80.0537 88.9044C80.0537 85.6474 78.7599 82.5238 76.4568 80.2207C74.1538 77.9176 71.0301 76.6238 67.7731 76.6238C64.5161 76.6238 61.3925 77.9176 59.0894 80.2207C56.7863 82.5238 55.4925 85.6474 55.4925 88.9044V88.9044Z" fill="white" stroke="#45413C" stroke-width="0.5" stroke-linecap="round" stroke-linejoin="round"/>
<path d="M62.8731 88.9044C62.8731 90.204 63.3894 91.4503 64.3083 92.3692C65.2272 93.2881 66.4735 93.8044 67.7731 93.8044C69.0727 93.8044 70.319 93.2881 71.2379 92.3692C72.1569 91.4503 72.6731 90.204 72.6731 88.9044C72.6731 87.6048 72.1569 86.3585 71.2379 85.4396C70.319 84.5206 69.0727 84.0044 67.7731 84.0044C66.4735 84.0044 65.2272 84.5206 64.3083 85.4396C63.3894 86.3585 62.8731 87.6048 62.8731 88.9044Z" fill="#6DD627" stroke="#45413C" stroke-width="0.5" stroke-linecap="round" stroke-linejoin="round"/>
<path d="M88.6594 49.2756V115.946" stroke="#45413C" stroke-width="0.5" stroke-linecap="round" stroke-linejoin="round"/>
<path d="M109.546 80.2988V75.3988" stroke="#45413C" stroke-width="0.5" stroke-linecap="round" stroke-linejoin="round"/>
<path d="M115.609 82.8406L119.07 79.3494" stroke="#45413C" stroke-width="0.5" stroke-linecap="round" stroke-linejoin="round"/>
<path d="M118.121 88.9044H123.051" stroke="#45413C" stroke-width="0.5" stroke-linecap="round" stroke-linejoin="round"/>
<path d="M115.609 94.9988L119.07 98.4594" stroke="#45413C" stroke-width="0.5" stroke-linecap="round" stroke-linejoin="round"/>
<path d="M109.546 97.51V102.41" stroke="#45413C" stroke-width="0.5" stroke-linecap="round" stroke-linejoin="round"/>
<path d="M103.451 94.9988L99.9906 98.4594" stroke="#45413C" stroke-width="0.5" stroke-linecap="round" stroke-linejoin="round"/>
<path d="M100.94 88.9044H96.0093" stroke="#45413C" stroke-width="0.5" stroke-linecap="round" stroke-linejoin="round"/>
<path d="M103.451 82.8406L99.9906 79.3494" stroke="#45413C" stroke-width="0.5" stroke-linecap="round" stroke-linejoin="round"/>
<path d="M88.6594 41.6806V35.6169L102.288 31.0844L85.6275 15.925L109.852 21.9888L116.008 8.42188" stroke="#45413C" stroke-width="0.5" stroke-linecap="round" stroke-linejoin="round"/>
<path d="M109.852 8.4525C109.852 10.0851 110.5 11.6508 111.655 12.8052C112.809 13.9596 114.375 14.6081 116.007 14.6081C117.64 14.6081 119.206 13.9596 120.36 12.8052C121.515 11.6508 122.163 10.0851 122.163 8.4525C122.163 6.81993 121.515 5.25422 120.36 4.09982C119.206 2.94541 117.64 2.29688 116.007 2.29688C114.375 2.29688 112.809 2.94541 111.655 4.09982C110.5 5.25422 109.852 6.81993 109.852 8.4525V8.4525Z" fill="#FF6242" stroke="#45413C" stroke-width="0.5" stroke-linecap="round" stroke-linejoin="round"/>
<path d="M44.7125 111.016C44.7125 111.016 43.2118 95.06 35.8312 96.285C27.1031 97.7244 29.7062 119.621 37.0562 118.396C43.1812 117.355 32.1562 97.51 23.5506 100.021C18.7425 101.399 16.2312 107.647 16.0168 109.699" stroke="#45413C" stroke-width="0.5" stroke-linecap="round" stroke-linejoin="round"/>
<path d="M4.04248 102.471C4.09919 104.877 4.753 107.231 5.94511 109.321C7.13723 111.411 8.83024 113.172 10.8719 114.446L13.23 115.977C15.1052 117.242 17.2481 118.055 19.4904 118.352C21.7327 118.65 24.0135 118.424 26.1537 117.692C26.433 117.385 26.6889 117.057 26.9194 116.712L4.28748 102.012C4.18771 102.155 4.10545 102.309 4.04248 102.471V102.471Z" fill="#FFAA54"/>
<path d="M7.8706 118.978C6.52012 118.1 5.35598 116.965 4.44481 115.637C3.53364 114.309 2.89333 112.814 2.56052 111.238C2.2277 109.662 2.20893 108.036 2.50526 106.453C2.80159 104.87 3.40722 103.361 4.28748 102.012L26.9194 116.712C26.044 118.069 24.9089 119.24 23.5794 120.156C22.2499 121.073 20.7522 121.718 19.1726 122.054C17.5929 122.39 15.9624 122.41 14.3749 122.113C12.7874 121.817 11.2743 121.209 9.92248 120.326L7.8706 118.978Z" stroke="#45413C" stroke-width="0.5" stroke-linecap="round" stroke-linejoin="round"/>
<path d="M144.703 108.351C144.703 111.6 143.413 114.716 141.115 117.013C138.818 119.311 135.702 120.601 132.453 120.601V93.1919C135.702 93.1919 138.818 94.4825 141.115 96.7798C143.413 99.0772 144.703 102.193 144.703 105.442V108.351Z" fill="#FF8A14"/>
<path d="M132.576 93.1919V99.3169C135.525 99.3425 138.366 100.431 140.577 102.384C142.788 104.336 144.22 107.02 144.611 109.944C144.642 109.434 144.642 108.922 144.611 108.413V105.35C144.588 102.154 143.316 99.0934 141.067 96.8219C138.819 94.5504 135.771 93.2477 132.576 93.1919V93.1919Z" fill="#FFAA54"/>
<path d="M144.703 108.351C144.703 111.6 143.413 114.716 141.115 117.013C138.818 119.311 135.702 120.601 132.453 120.601V93.1919C135.702 93.1919 138.818 94.4825 141.115 96.7798C143.413 99.0772 144.703 102.193 144.703 105.442V108.351Z" stroke="#45413C" stroke-width="0.5" stroke-linecap="round" stroke-linejoin="round"/>
<path d="M56.84 115.946H120.479V140.201H56.84V115.946Z" fill="#C0DCEB"/>
<path d="M115.916 115.946H61.25C60.0479 115.946 58.895 116.424 58.045 117.274C57.195 118.124 56.7175 119.277 56.7175 120.479V126.604C56.7094 126.002 56.8204 125.405 57.0442 124.846C57.268 124.287 57.6001 123.778 58.0213 123.348C58.4426 122.919 58.9448 122.576 59.4989 122.341C60.053 122.106 60.6481 121.983 61.25 121.979H115.916C117.126 121.979 118.286 122.46 119.142 123.316C119.998 124.172 120.479 125.332 120.479 126.543V120.418C120.455 119.223 119.963 118.086 119.11 117.25C118.257 116.414 117.11 115.946 115.916 115.946V115.946Z" fill="#DAEDF7"/>
<path d="M56.84 115.946H120.479V140.201H56.84V115.946Z" stroke="#45413C" stroke-width="0.5" stroke-linecap="round" stroke-linejoin="round"/>
<path d="M62.9037 120.479C62.5984 120.473 62.2982 120.558 62.0417 120.724C61.7852 120.89 61.5843 121.129 61.4646 121.41C61.3449 121.691 61.312 122.001 61.3701 122.301C61.4282 122.601 61.5747 122.877 61.7907 123.093C62.0066 123.308 62.2823 123.455 62.5821 123.513C62.882 123.571 63.1924 123.538 63.4734 123.419C63.7544 123.299 63.9932 123.098 64.1591 122.841C64.325 122.585 64.4104 122.285 64.4044 121.979C64.4044 121.581 64.2463 121.2 63.9648 120.918C63.6834 120.637 63.3017 120.479 62.9037 120.479Z" fill="#45413C"/>
<path d="M114.415 120.479C114.11 120.473 113.809 120.558 113.553 120.724C113.296 120.89 113.095 121.129 112.976 121.41C112.856 121.691 112.823 122.001 112.881 122.301C112.939 122.601 113.086 122.877 113.302 123.093C113.518 123.308 113.793 123.455 114.093 123.513C114.393 123.571 114.704 123.538 114.985 123.419C115.266 123.299 115.504 123.098 115.67 122.841C115.836 122.585 115.922 122.285 115.916 121.979C115.916 121.581 115.757 121.2 115.476 120.918C115.195 120.637 114.813 120.479 114.415 120.479Z" fill="#45413C"/>
</svg>
