<svg width="200" height="200" viewBox="0 0 200 200" fill="none" xmlns="http://www.w3.org/2000/svg">
<path opacity="0.15" d="M52.0835 189.583C52.0835 191.241 57.1318 192.831 66.118 194.003C75.1041 195.175 87.2919 195.833 100 195.833C112.708 195.833 124.896 195.175 133.882 194.003C142.868 192.831 147.917 191.241 147.917 189.583C147.917 187.926 142.868 186.336 133.882 185.164C124.896 183.992 112.708 183.333 100 183.333C87.2919 183.333 75.1041 183.992 66.118 185.164C57.1318 186.336 52.0835 187.926 52.0835 189.583V189.583Z" fill="#45413C"/>
<path d="M18.0417 95.1251C18.0417 116.862 26.6766 137.708 42.0468 153.078C57.417 168.449 78.2634 177.083 100 177.083C121.737 177.083 142.583 168.449 157.953 153.078C173.324 137.708 181.958 116.862 181.958 95.1251C181.958 73.3884 173.324 52.542 157.953 37.1718C142.583 21.8016 121.737 13.1667 100 13.1667C78.2634 13.1667 57.417 21.8016 42.0468 37.1718C26.6766 52.542 18.0417 73.3884 18.0417 95.1251V95.1251Z" fill="#00B8F0"/>
<path d="M172.25 56.4585C175.672 67.7402 176.404 79.6663 174.388 91.2819C172.372 102.897 167.664 113.879 160.641 123.348C153.618 132.817 144.475 140.51 133.945 145.81C123.415 151.111 111.789 153.872 100 153.872C88.211 153.872 76.5856 151.111 66.0552 145.81C55.5248 140.51 46.382 132.817 39.3589 123.348C32.3359 113.879 27.628 102.897 25.6121 91.2819C23.5962 79.6663 24.3284 67.7402 27.7501 56.4585C21.0628 68.9455 17.7261 82.9525 18.0653 97.1134C18.4044 111.274 22.4079 125.105 29.6853 137.258C36.9627 149.41 47.2655 159.469 59.5888 166.454C71.9121 173.438 85.8352 177.109 100 177.109C114.165 177.109 128.088 173.438 140.411 166.454C152.735 159.469 163.038 149.41 170.315 137.258C177.592 125.105 181.596 111.274 181.935 97.1134C182.274 82.9525 178.937 68.9455 172.25 56.4585V56.4585Z" fill="#009FD9"/>
<path d="M18.0417 95.1251C18.0417 116.862 26.6766 137.708 42.0468 153.078C57.417 168.449 78.2634 177.083 100 177.083C121.737 177.083 142.583 168.449 157.953 153.078C173.324 137.708 181.958 116.862 181.958 95.1251C181.958 73.3884 173.324 52.542 157.953 37.1718C142.583 21.8016 121.737 13.1667 100 13.1667C78.2634 13.1667 57.417 21.8016 42.0468 37.1718C26.6766 52.542 18.0417 73.3884 18.0417 95.1251V95.1251Z" stroke="#45413C" stroke-width="0.5" stroke-linecap="round" stroke-linejoin="round"/>
<path d="M104.792 97.9167L100.375 106.25C100.137 106.735 99.7955 107.161 99.3752 107.5L95.8335 110.458C95.1321 111.05 94.6457 111.857 94.4498 112.754C94.2539 113.65 94.3595 114.586 94.7502 115.417L100.875 128.417C101.139 128.984 101.527 129.484 102.01 129.881C102.493 130.277 103.059 130.56 103.667 130.708L106.292 131.333C106.831 131.464 107.339 131.702 107.786 132.032C108.232 132.362 108.608 132.778 108.891 133.256C109.175 133.733 109.36 134.262 109.436 134.812C109.512 135.362 109.477 135.922 109.333 136.458L103.708 157.75C103.56 158.38 103.56 159.036 103.708 159.667L104.167 161.958C104.312 162.669 104.64 163.33 105.118 163.875C105.597 164.42 106.21 164.831 106.896 165.066C107.582 165.302 108.317 165.355 109.03 165.219C109.743 165.083 110.407 164.763 110.958 164.292L137.042 142.417C137.591 141.951 138.251 141.635 138.958 141.5L143.5 140.667C144.13 140.551 144.724 140.291 145.237 139.908C145.75 139.525 146.168 139.029 146.459 138.458L154.792 121.792C155.05 121.286 155.201 120.733 155.237 120.166C155.274 119.6 155.194 119.032 155.002 118.497C154.811 117.963 154.513 117.473 154.126 117.058C153.738 116.643 153.27 116.311 152.75 116.083L139.375 110.125C138.575 109.742 137.919 109.115 137.5 108.333L134.542 102.708C134.259 102.16 133.859 101.681 133.369 101.307C132.879 100.932 132.312 100.671 131.709 100.542L109.333 95.8334C108.453 95.643 107.535 95.7431 106.716 96.1187C105.897 96.4943 105.222 97.1251 104.792 97.9167V97.9167Z" fill="#6DD627"/>
<path d="M110.917 164.375L131.75 146.958C123.295 150.884 114.179 153.187 104.875 153.75L103.792 157.917C103.643 158.547 103.643 159.203 103.792 159.833L104.25 162.125C104.417 162.807 104.753 163.435 105.228 163.952C105.702 164.469 106.3 164.858 106.965 165.083C107.63 165.307 108.341 165.36 109.032 165.236C109.722 165.113 110.371 164.816 110.917 164.375Z" fill="#46B000"/>
<path d="M146.417 138.542L146.917 137.583C145.458 138.75 143.958 139.917 142.417 140.959H143.458C144.108 140.821 144.716 140.53 145.231 140.109C145.745 139.689 146.152 139.151 146.417 138.542Z" fill="#46B000"/>
<path d="M104.792 97.9167L100.375 106.25C100.137 106.735 99.7955 107.161 99.3752 107.5L95.8335 110.458C95.1321 111.05 94.6457 111.857 94.4498 112.754C94.2539 113.65 94.3595 114.586 94.7502 115.417L100.875 128.417C101.139 128.984 101.527 129.484 102.01 129.881C102.493 130.277 103.059 130.56 103.667 130.708L106.292 131.333C106.831 131.464 107.339 131.702 107.786 132.032C108.232 132.362 108.608 132.778 108.891 133.256C109.175 133.733 109.36 134.262 109.436 134.812C109.512 135.362 109.477 135.922 109.333 136.458L103.708 157.75C103.56 158.38 103.56 159.036 103.708 159.667L104.167 161.958C104.312 162.669 104.64 163.33 105.118 163.875C105.597 164.42 106.21 164.831 106.896 165.066C107.582 165.302 108.317 165.355 109.03 165.219C109.743 165.083 110.407 164.763 110.958 164.292L137.042 142.417C137.591 141.951 138.251 141.635 138.958 141.5L143.5 140.667C144.13 140.551 144.724 140.291 145.237 139.908C145.75 139.525 146.168 139.029 146.459 138.458L154.792 121.792C155.05 121.286 155.201 120.733 155.237 120.166C155.274 119.6 155.194 119.032 155.002 118.497C154.811 117.963 154.513 117.473 154.126 117.058C153.738 116.643 153.27 116.311 152.75 116.083L139.375 110.125C138.575 109.742 137.919 109.115 137.5 108.333L134.542 102.708C134.259 102.16 133.859 101.681 133.369 101.307C132.879 100.932 132.312 100.671 131.709 100.542L109.333 95.8334C108.453 95.643 107.535 95.7431 106.716 96.1187C105.897 96.4943 105.222 97.1251 104.792 97.9167V97.9167Z" stroke="#45413C" stroke-width="0.5" stroke-linecap="round" stroke-linejoin="round"/>
<path d="M93.3751 40.9167L85.0418 36.125C84.5352 35.8301 84.0966 35.4317 83.7546 34.9557C83.4125 34.4797 83.1748 33.9369 83.0568 33.3628C82.9388 32.7887 82.9433 32.1961 83.07 31.6238C83.1966 31.0516 83.4426 30.5124 83.7918 30.0417L84.4168 29.1667C84.8049 28.6374 85.0626 28.0239 85.1687 27.3762C85.2748 26.7284 85.2263 26.0648 85.0273 25.4393C84.8283 24.8138 84.4843 24.2442 84.0234 23.7769C83.5625 23.3095 82.9978 22.9577 82.3751 22.75L72.0001 19.3334C71.0596 18.982 70.0239 18.982 69.0834 19.3334C60.5877 22.7615 52.7284 27.5927 45.8334 33.625C45.0066 34.3461 44.4976 35.3642 44.4168 36.4584L42.6668 58.6667C42.5977 59.6481 42.8782 60.6222 43.4584 61.4167L59.7084 83.3334C60.1846 83.9757 60.8355 84.4675 61.5834 84.75L82.6668 92.875L83.2918 93.1667L94.1668 100C94.6906 100.307 95.2753 100.496 95.8799 100.554C96.4845 100.612 97.0943 100.536 97.6668 100.333L101.833 98.875L90.7918 89.2084C90.5058 88.9528 90.1827 88.742 89.8334 88.5834L76.0001 81.875C75.3988 81.5827 74.8766 81.1499 74.4777 80.6132C74.0788 80.0766 73.815 79.4518 73.7084 78.7917L73.1668 75.7084C73.0582 75.0871 73.0921 74.4492 73.266 73.8429C73.4398 73.2366 73.749 72.6777 74.1703 72.2083C74.5915 71.7389 75.1139 71.3712 75.6979 71.1331C76.2819 70.8949 76.9124 70.7924 77.5418 70.8334L91.2918 71.9584C91.9489 72.0095 92.6088 71.9039 93.2173 71.6504C93.8257 71.3969 94.3653 71.0026 94.7918 70.5L108.708 54.1667C109.368 53.3956 110.287 52.8919 111.292 52.75L121.583 51.375C122.585 51.2335 123.5 50.7328 124.159 49.9662C124.819 49.1996 125.177 48.2194 125.167 47.2084V44.0417C125.168 43.2766 124.959 42.5258 124.562 41.8717C124.165 41.2175 123.596 40.6853 122.917 40.3334L106.542 32C105.999 31.7241 105.403 31.5704 104.795 31.5496C104.187 31.5289 103.581 31.6416 103.021 31.8799C102.461 32.1182 101.96 32.4762 101.554 32.9289C101.147 33.3816 100.844 33.9179 100.667 34.5L99.4168 38.6667C99.2171 39.2503 98.8903 39.7822 98.46 40.2242C98.0298 40.6661 97.5067 41.007 96.9287 41.2223C96.3507 41.4376 95.7321 41.5218 95.1176 41.469C94.503 41.4161 93.9079 41.2275 93.3751 40.9167Z" fill="#6DD627" stroke="#45413C" stroke-width="0.5" stroke-linecap="round" stroke-linejoin="round"/>
<path d="M100 13.2083C96.6283 13.2188 93.2605 13.4415 89.9167 13.875L119.083 26.375C119.639 26.5967 120.236 26.6962 120.833 26.6666L134 25.625L135.917 21.4583C124.733 15.9979 112.446 13.1755 100 13.2083V13.2083Z" fill="#6DD627" stroke="#45413C" stroke-width="0.5" stroke-linecap="round" stroke-linejoin="round"/>
<path d="M119.792 79.1668L108.333 75.4168C107.841 75.2365 107.298 75.2528 106.817 75.4623C106.336 75.6717 105.954 76.0583 105.75 76.5418L103.083 82.8752C102.942 83.2111 102.892 83.5781 102.937 83.9395C102.982 84.301 103.121 84.6443 103.341 84.9352C103.56 85.2261 103.852 85.4545 104.187 85.5975C104.522 85.7405 104.888 85.7931 105.25 85.7502L114.125 84.5835C114.6 84.5221 115.041 84.3018 115.375 83.9585L119.792 79.1668Z" fill="#6DD627" stroke="#45413C" stroke-width="0.5" stroke-linecap="round" stroke-linejoin="round"/>
</svg>
